<svg width="137" height="45" viewBox="0 0 137 45" fill="none" xmlns="http://www.w3.org/2000/svg">
<path d="M12.1372 0.985352V1.17702L11.333 1.36868V9.86083L12.1372 10.0525V10.2442H8.32476V10.0525L9.12895 9.86083V2.62186L5.9718 10.3768H5.56968L1.47432 2.62186V9.65442L2.54656 10.0525V10.2442H0V10.0525L1.07224 9.65442V1.36868L0.268049 1.17702V0.985352H1.93597C2.18914 0.985352 2.41253 1.01484 2.59124 1.07381C2.76994 1.13278 2.94867 1.2065 3.0827 1.3097C3.23163 1.41291 3.35076 1.53086 3.45501 1.66355C3.55926 1.79624 3.64861 1.95841 3.73797 2.12059L6.65683 7.64933L8.89067 2.12059C8.96513 1.92892 9.03961 1.76675 9.14386 1.63406C9.23321 1.50137 9.35232 1.38342 9.48635 1.28022C9.62038 1.17702 9.78422 1.1033 9.97782 1.05907C10.1714 1.01484 10.4097 0.985352 10.7075 0.985352H12.1372Z" fill="#B1B1B1"/>
<path d="M16.9028 3.44754C17.4538 3.44754 17.9601 3.52126 18.392 3.68343C18.8239 3.84561 19.1962 4.0815 19.5089 4.37637C19.8216 4.68598 20.045 5.05456 20.2088 5.48212C20.3727 5.90967 20.4471 6.41095 20.4471 6.95645C20.4471 7.50195 20.3727 8.00322 20.2088 8.43078C20.045 8.85834 19.8067 9.22692 19.5089 9.53653C19.1962 9.84614 18.8239 10.0673 18.392 10.2295C17.9601 10.3916 17.4538 10.4654 16.9028 10.4654C16.3517 10.4654 15.8454 10.3916 15.4135 10.2295C14.9817 10.0673 14.6094 9.8314 14.2966 9.53653C13.9839 9.22692 13.7605 8.85834 13.5967 8.43078C13.4329 8.00322 13.3584 7.50195 13.3584 6.95645C13.3584 6.41095 13.4329 5.90967 13.5967 5.48212C13.7605 5.05456 13.9988 4.68598 14.2966 4.37637C14.6094 4.06676 14.9817 3.84561 15.4135 3.68343C15.8454 3.52126 16.3369 3.44754 16.9028 3.44754ZM16.9028 10.2147C17.0517 10.2147 17.2006 10.1705 17.3644 10.0673C17.5133 9.96409 17.6474 9.80191 17.7665 9.55127C17.8856 9.30064 17.9899 8.97628 18.0644 8.56347C18.1388 8.13591 18.1835 7.60515 18.1835 6.97119C18.1835 6.32249 18.1388 5.79173 18.0644 5.37891C17.9899 4.9661 17.8856 4.627 17.7665 4.39111C17.6474 4.15522 17.5133 3.9783 17.3644 3.8751C17.2155 3.77189 17.0666 3.72766 16.9028 3.72766C16.7538 3.72766 16.6049 3.77189 16.4411 3.8751C16.2922 3.9783 16.1581 4.14048 16.039 4.39111C15.9198 4.64175 15.8156 4.9661 15.7412 5.37891C15.6667 5.80647 15.622 6.33723 15.622 6.97119C15.622 7.6199 15.6667 8.15066 15.7412 8.56347C15.8156 8.97628 15.9198 9.31538 16.039 9.55127C16.1581 9.78717 16.2922 9.96409 16.4411 10.0673C16.59 10.1557 16.7389 10.2147 16.9028 10.2147Z" fill="#B1B1B1"/>
<path d="M26.9551 0.985336C27.7593 0.985336 28.1614 1.38341 28.1614 2.17954V9.87556L28.9656 10.0672V10.2589H27.7593C27.4317 10.2589 27.1785 10.2147 26.9849 10.1115C26.7913 10.0082 26.6275 9.8903 26.5233 9.77235C26.3892 9.62492 26.285 9.448 26.2254 9.27108C26.1063 9.50697 25.9574 9.69864 25.7786 9.87556C25.6297 10.023 25.4212 10.1557 25.1681 10.2884C24.9149 10.4211 24.617 10.48 24.2745 10.48C23.8873 10.48 23.5299 10.4063 23.2023 10.2589C22.8598 10.1115 22.5768 9.8903 22.3385 9.59543C22.1003 9.30057 21.8918 8.93198 21.7578 8.50443C21.6088 8.06213 21.5493 7.56085 21.5493 6.97112C21.5493 6.38139 21.6237 5.88012 21.7578 5.43782C21.9067 4.99552 22.1003 4.64168 22.3683 4.34681C22.6215 4.05195 22.9343 3.8308 23.2917 3.68336C23.6491 3.53593 24.0512 3.46221 24.4979 3.46221C24.7362 3.46221 24.9447 3.4917 25.1383 3.53593C25.3319 3.5949 25.4957 3.65388 25.6297 3.72759C25.7935 3.80131 25.9276 3.88977 26.0467 3.99297V1.41289L25.2425 1.22123V1.02957H26.9551V0.985336ZM26.0169 4.3763C25.9127 4.27309 25.8233 4.18464 25.7042 4.11092C25.6 4.0372 25.4957 3.97823 25.3766 3.91926C25.2574 3.86028 25.1383 3.84554 25.0043 3.84554C24.8405 3.84554 24.6766 3.88977 24.5277 3.97823C24.3788 4.06669 24.2596 4.21412 24.1405 4.43527C24.0362 4.65642 23.9469 4.98077 23.8873 5.37884C23.8278 5.79166 23.798 6.30767 23.798 6.95638C23.798 7.59034 23.8278 8.09161 23.8873 8.48968C23.9469 8.88775 24.0214 9.19736 24.1256 9.41851C24.215 9.63966 24.3192 9.80184 24.4533 9.87556C24.5724 9.94927 24.6915 9.9935 24.8107 9.9935C25.0192 9.9935 25.1978 9.93453 25.3468 9.83133C25.4957 9.72812 25.6148 9.59543 25.7191 9.46274C25.8382 9.30057 25.9425 9.12365 26.0318 8.93198V4.3763H26.0169Z" fill="#B1B1B1"/>
<path d="M33.4479 10.4802C32.3012 10.4802 31.4077 10.1706 30.7822 9.55139C30.1419 8.93217 29.8291 8.06232 29.8291 6.97131C29.8291 6.42581 29.9036 5.92454 30.0674 5.49698C30.2312 5.06942 30.4546 4.70084 30.7376 4.39123C31.0205 4.08162 31.363 3.86047 31.78 3.6983C32.1821 3.53612 32.6288 3.4624 33.1203 3.4624C33.6266 3.4624 34.0734 3.53612 34.4606 3.66881C34.8627 3.81624 35.1903 4.00791 35.4733 4.2438C35.7562 4.47969 35.9647 4.75981 36.1136 5.08417C36.2626 5.40852 36.337 5.74762 36.337 6.1162C36.337 6.23414 36.337 6.35209 36.3221 6.44055C36.3072 6.52901 36.2924 6.61747 36.2775 6.69119C36.2477 6.77965 36.2328 6.85337 36.203 6.91234C35.8158 6.98606 35.3988 7.05977 34.952 7.104C34.5797 7.16297 34.1479 7.2072 33.6564 7.23669C33.165 7.26618 32.6586 7.29567 32.1225 7.29567C32.1225 7.84117 32.1672 8.29821 32.2416 8.66679C32.3161 9.03538 32.4352 9.33024 32.5693 9.53665C32.7182 9.7578 32.882 9.90523 33.0756 9.99369C33.2692 10.0822 33.4926 10.1264 33.716 10.1264C33.9841 10.1264 34.2372 10.0822 34.4755 9.97895C34.7137 9.87575 34.9222 9.7578 35.0861 9.59562C35.2648 9.43345 35.3988 9.24178 35.503 9.03538C35.6073 8.82897 35.652 8.62256 35.652 8.40141H35.9796C35.9796 8.66679 35.92 8.91743 35.8009 9.16806C35.6818 9.4187 35.5031 9.63985 35.2797 9.83151C35.0563 10.0232 34.7882 10.1706 34.4755 10.2886C34.1776 10.4212 33.8351 10.4802 33.4479 10.4802ZM32.1076 6.95657C32.4055 6.95657 32.6735 6.95657 32.9118 6.94183C33.1501 6.92708 33.3437 6.91234 33.5075 6.8976C33.7011 6.88285 33.85 6.85336 33.984 6.83862C33.9989 6.75016 34.0287 6.64696 34.0436 6.54376C34.0585 6.44055 34.0734 6.33735 34.0883 6.2194C34.1032 6.10145 34.1032 5.96877 34.1032 5.83608C34.1032 5.43801 34.0734 5.09891 34.0138 4.83353C33.9542 4.56815 33.8798 4.347 33.7755 4.17008C33.6862 4.0079 33.5819 3.87521 33.4479 3.81624C33.3139 3.75727 33.2096 3.71304 33.0905 3.71304C32.9714 3.71304 32.8522 3.75727 32.7331 3.84573C32.614 3.93419 32.5097 4.09636 32.4055 4.31751C32.3161 4.55341 32.2268 4.87776 32.1672 5.30532C32.1076 5.73287 32.1076 6.27837 32.1076 6.95657Z" fill="#B1B1B1"/>
<path d="M41.9663 3.90452C41.6982 3.90452 41.46 3.9635 41.2515 4.0667C41.043 4.1699 40.8643 4.30259 40.7154 4.43528C40.5515 4.59746 40.4175 4.77438 40.2835 4.96604V9.87557L41.0877 10.0672V10.2589H37.3348V10.0672L38.139 9.87557V4.03721L37.3348 3.84555V3.65389H38.5411C38.8538 3.65389 39.107 3.71286 39.3155 3.81606C39.5091 3.91927 39.6729 4.03721 39.792 4.15516C39.9261 4.30259 40.0303 4.46477 40.0899 4.64169C40.2239 4.45002 40.3877 4.27311 40.5813 4.11093C40.7452 3.97824 40.9537 3.86029 41.2068 3.74235C41.46 3.6244 41.7429 3.58017 42.0855 3.58017C42.562 3.58017 42.9194 3.69812 43.1577 3.90452C43.396 4.12567 43.5002 4.43528 43.5002 4.83335C43.5002 5.12822 43.4109 5.37885 43.2322 5.55577C43.0534 5.73269 42.8003 5.82115 42.5024 5.82115C42.428 5.82115 42.3684 5.82115 42.2939 5.82115C42.2195 5.82115 42.1748 5.80641 42.1301 5.80641C42.0706 5.79167 42.011 5.79167 41.9663 5.76218V3.90452Z" fill="#B1B1B1"/>
<path d="M49.2635 5.62954C49.2635 5.33467 49.2337 5.06929 49.1742 4.84815C49.1146 4.627 49.0402 4.45007 48.9359 4.31738C48.8466 4.16995 48.7423 4.06675 48.6083 4.00777C48.4892 3.9488 48.37 3.90457 48.2508 3.90457C48.0424 3.90457 47.8637 3.96354 47.7148 4.06675C47.5658 4.16995 47.4318 4.30264 47.3424 4.43533C47.2233 4.59751 47.1339 4.77443 47.0446 4.96609V9.87562L47.8488 10.0673V10.2589H44.0959V10.0673L44.9001 9.87562V4.03726L44.0959 3.8456V3.65393H45.3022C45.615 3.65393 45.8681 3.71291 46.0766 3.81611C46.2702 3.91931 46.434 4.03726 46.5532 4.15521C46.6872 4.30264 46.7914 4.46482 46.851 4.64174C46.9701 4.42059 47.1191 4.21418 47.2978 4.03726C47.4467 3.88983 47.6552 3.75714 47.8935 3.62445C48.1317 3.49176 48.4444 3.43279 48.8019 3.43279C49.1891 3.43279 49.5465 3.49176 49.8592 3.62445C50.1869 3.7424 50.4549 3.91932 50.6783 4.11098C50.9017 4.31739 51.0804 4.53853 51.2144 4.80391C51.3485 5.06929 51.408 5.33467 51.408 5.6148V9.86087L52.2122 10.0525V10.2442H50.4698C49.6656 10.2442 49.2635 9.84613 49.2635 9.04999V5.62954Z" fill="#B1B1B1"/>
<path d="M1.41492 19.5767V19.0312H11.765V19.5767L9.59074 20.1222V31.2534H17.3943V20.1222L15.22 19.5767V19.0312H25.5701V19.5767L23.3958 20.1222V43.1218L25.5701 43.6673V44.2128H15.22V43.6525L17.3943 43.107V32.1527H9.59074V43.107L11.765 43.6525V44.198H1.41492V43.6525L3.58917 43.107V20.1074L1.41492 19.5767Z" fill="#B1B1B1"/>
<path d="M38.4368 25.6805C39.9409 25.6805 41.2812 25.9016 42.4726 26.3292C43.6639 26.7567 44.6617 27.3907 45.4957 28.2163C46.3297 29.0419 46.97 30.0445 47.4019 31.2239C47.8338 32.4034 48.0572 33.7303 48.0572 35.2194C48.0572 36.7085 47.8338 38.0353 47.4019 39.2148C46.97 40.3943 46.3297 41.3821 45.4957 42.2077C44.6617 43.0333 43.6491 43.6673 42.4726 44.0949C41.2812 44.5224 39.9409 44.7436 38.4368 44.7436C36.9327 44.7436 35.5924 44.5224 34.401 44.0949C33.2096 43.6673 32.2118 43.0333 31.3779 42.2077C30.5439 41.3821 29.9035 40.3795 29.4717 39.2148C29.0398 38.0353 28.8164 36.7085 28.8164 35.2194C28.8164 33.7303 29.0398 32.4034 29.4717 31.2239C29.9035 30.0445 30.5439 29.0567 31.3779 28.2163C32.2118 27.3759 33.2245 26.7567 34.401 26.3292C35.5924 25.9016 36.9327 25.6805 38.4368 25.6805ZM38.4368 44.0064C38.8538 44.0064 39.2559 43.8737 39.6729 43.6083C40.0898 43.3429 40.4472 42.8859 40.7749 42.2225C41.1025 41.559 41.3706 40.6597 41.5791 39.5244C41.7876 38.3892 41.8918 36.9443 41.8918 35.1899C41.8918 33.4354 41.7876 31.9906 41.5791 30.8554C41.3706 29.7201 41.1025 28.8208 40.7749 28.1573C40.4472 27.4939 40.075 27.0368 39.6729 26.7715C39.2708 26.5061 38.8538 26.3734 38.4368 26.3734C38.0198 26.3734 37.6177 26.5061 37.2007 26.7715C36.7838 27.0368 36.4263 27.4939 36.0987 28.1573C35.7711 28.8208 35.503 29.7201 35.2945 30.8554C35.086 31.9906 34.9818 33.4354 34.9818 35.1899C34.9818 36.9443 35.086 38.3892 35.2945 39.5244C35.503 40.6597 35.7711 41.559 36.0987 42.2225C36.4263 42.8859 36.7987 43.3429 37.2007 43.6083C37.6177 43.8737 38.0198 44.0064 38.4368 44.0064Z" fill="#B1B1B1"/>
<path d="M75.2654 31.6073C75.2654 30.7522 75.191 30.015 75.042 29.44C74.8931 28.865 74.7144 28.3785 74.4761 28.0099C74.2378 27.6413 73.9847 27.3759 73.7166 27.199C73.4336 27.0368 73.1656 26.9484 72.8975 26.9484C72.4359 26.9484 72.0338 27.0958 71.6764 27.3907C71.319 27.6855 71.0211 28.0246 70.7531 28.3785C70.4701 28.806 70.202 29.2926 69.9935 29.8086V43.1071L72.1827 43.6526V44.1981H62.0262V43.6526L64.2005 43.1071V31.6073C64.2005 30.7522 64.126 30.015 63.9771 29.44C63.8281 28.865 63.6494 28.3785 63.4111 28.0099C63.1729 27.6413 62.9197 27.3759 62.6517 27.199C62.3687 27.0368 62.1006 26.9484 61.8326 26.9484C61.3709 26.9484 60.9689 27.0958 60.6114 27.3907C60.254 27.6855 59.9561 28.0246 59.6881 28.3785C59.3902 28.806 59.1371 29.2926 58.9286 29.8086V43.1071L61.1029 43.6526V44.1981H50.9464V43.6526L53.1207 43.1071V27.3022L50.9464 26.7567V26.2112H54.2078C55.0566 26.2112 55.7565 26.3587 56.2927 26.6388C56.8437 26.9189 57.2607 27.2432 57.5883 27.5676C57.9457 27.9804 58.2138 28.4227 58.3925 28.8945C58.7052 28.29 59.0924 27.7593 59.5541 27.2727C59.971 26.8599 60.4774 26.4913 61.0731 26.1522C61.6837 25.8131 62.4134 25.651 63.292 25.651C64.7366 25.651 66.0024 25.9753 67.0449 26.6093C68.1022 27.2433 68.9064 28.0689 69.4574 29.0714C69.7702 28.4522 70.1574 27.892 70.619 27.3759C71.036 26.9484 71.5423 26.5503 72.138 26.1965C72.7486 25.8426 73.4783 25.651 74.357 25.651C75.3547 25.651 76.2483 25.8131 77.0823 26.1228C77.9013 26.4324 78.6161 26.8599 79.2118 27.4054C79.8075 27.9509 80.2692 28.5701 80.5968 29.2926C80.9244 30.015 81.0883 30.7816 81.0883 31.5925V43.0923L83.2625 43.6378V44.1833H78.5417C76.3674 44.1833 75.2803 43.1071 75.2803 40.9545V31.6073H75.2654Z" fill="#B1B1B1"/>
<path d="M95.2359 44.7288C92.1384 44.7288 89.7258 43.8884 88.0132 42.193C86.3006 40.4975 85.4368 38.1828 85.4368 35.2046C85.4368 33.7156 85.6602 32.3887 86.0921 31.2092C86.524 30.0297 87.1345 29.0419 87.9089 28.2016C88.6833 27.3759 89.6216 26.742 90.7236 26.3144C91.8256 25.8869 93.0319 25.6657 94.3275 25.6657C95.6827 25.6657 96.9039 25.8574 97.9761 26.2407C99.0484 26.624 99.9717 27.14 100.716 27.7887C101.461 28.4375 102.042 29.2041 102.444 30.074C102.846 30.9438 103.039 31.8726 103.039 32.8604C103.039 33.1995 103.025 33.4944 102.98 33.745C102.935 33.9957 102.905 34.2168 102.846 34.4085C102.771 34.6444 102.712 34.8508 102.667 35.013C101.595 35.2341 100.478 35.411 99.2866 35.5585C98.274 35.7059 97.0975 35.8239 95.772 35.9418C94.4466 36.045 93.0468 36.104 91.6022 36.104C91.6022 37.5931 91.7065 38.8315 91.9299 39.8193C92.1533 40.8071 92.4511 41.6032 92.8383 42.193C93.2255 42.7827 93.6871 43.1955 94.2232 43.4461C94.7594 43.6968 95.3402 43.8295 95.9657 43.8295C96.6954 43.8295 97.3804 43.6968 98.0208 43.4314C98.6612 43.166 99.2122 42.8122 99.6887 42.3699C100.165 41.9276 100.538 41.4263 100.821 40.8661C101.103 40.3058 101.238 39.7308 101.238 39.1558H102.146C102.146 39.8783 101.982 40.5712 101.654 41.2346C101.327 41.9128 100.865 42.5026 100.255 43.0186C99.644 43.5346 98.9292 43.9474 98.0804 44.257C97.2166 44.5666 96.2635 44.7288 95.2359 44.7288ZM91.6022 35.2046C92.4213 35.2046 93.151 35.1899 93.7765 35.1457C94.402 35.1014 94.9381 35.0719 95.37 35.0277C95.8763 34.9835 96.3082 34.9245 96.6805 34.8508C96.7252 34.6149 96.7847 34.3495 96.8592 34.0547C96.9039 33.7893 96.9485 33.4944 96.9783 33.1701C97.0081 32.8457 97.0379 32.5066 97.0379 32.1528C97.0379 31.0765 96.9485 30.1772 96.7847 29.44C96.6209 28.7028 96.3975 28.1131 96.1444 27.6561C95.8912 27.199 95.5934 26.8747 95.2806 26.683C94.953 26.4913 94.6253 26.3881 94.3126 26.3881C93.9999 26.3881 93.6722 26.5061 93.3446 26.7272C93.017 26.9631 92.734 27.3907 92.4809 28.0246C92.2277 28.6586 92.0192 29.5579 91.8405 30.7079C91.6916 31.8579 91.6022 33.3617 91.6022 35.2046Z" fill="#B1B1B1"/>
<path d="M120.865 43.8295V29.2483L107.85 19.0459V43.8295H120.865Z" fill="#B1B1B1"/>
<path d="M136.964 43.8295V29.2483L124.157 19.0459V43.8295H136.964Z" fill="#B1B1B1"/>
</svg>
