<svg width="152" height="47" viewBox="0 0 152 47" fill="none" xmlns="http://www.w3.org/2000/svg">
<path d="M22.0248 10.0712L23.1417 9.83532C23.4247 9.83532 23.6629 9.89429 23.8268 10.0122C23.9906 10.1302 24.0799 10.2481 24.0799 10.3513C24.0799 10.4545 24.0501 10.6167 24.0055 10.8084C23.9608 11 23.5438 12.9756 22.7694 16.7057C21.995 20.4358 21.4291 23.2222 21.0717 25.0504C22.7992 22.721 24.8245 19.8608 27.1328 16.4551C29.4411 13.0494 30.7963 10.7936 31.1835 9.67314C31.3027 9.3193 31.4665 9.05392 31.6601 8.86226C31.8537 8.67059 32.0324 8.55265 32.1813 8.52316C32.3302 8.49368 32.5685 8.46419 32.8812 8.46419C33.194 8.46419 33.5663 8.53791 33.9982 8.6706C34.43 8.80329 34.6534 9.02443 34.6534 9.34879C34.6534 9.93852 33.7599 11.6635 31.9877 14.4942C30.2155 17.3249 28.1753 20.3326 25.8819 23.5171C23.5885 26.7017 21.6823 29.2228 20.1484 31.0804C19.8803 31.4048 19.5378 31.5817 19.1506 31.5817C18.7634 31.5817 18.3464 31.508 17.9145 31.3753C17.4827 31.2426 17.2593 31.0067 17.2593 30.6529C17.2593 29.5471 18.2422 24.2101 20.2079 14.6711C18.5251 16.8237 16.4849 19.8313 14.0872 23.6793C11.5853 27.66 10.1706 30.1369 9.84294 31.0804C9.66424 31.6554 9.45575 31.9945 9.21747 32.083C9.05366 32.1567 8.87494 32.1862 8.69624 32.1862L7.48997 32.3189C7.25169 32.3189 7.0432 32.2599 6.83471 32.1272C6.64111 31.9945 6.53687 31.8618 6.53687 31.7144C6.53687 31.3163 7.10278 30.1074 8.2197 28.1023C9.33661 26.0972 10.662 23.9152 12.1661 21.5563C13.6702 19.1973 15.2339 16.9121 16.8721 14.6859C18.5102 12.4596 19.7761 10.9558 20.6696 10.2039C20.8483 10.0417 21.0568 9.96801 21.2951 9.96801L22.0248 10.0712Z" fill="#B1B1B1"/>
<path d="M39.925 20.0673C40.6994 20.0673 41.0866 20.3327 41.0866 20.8487C41.0866 21.1288 41.027 21.3352 40.893 21.4679C40.759 21.6006 40.476 22.0282 40.0442 22.7801C39.6123 23.5173 39.1357 24.4608 38.6145 25.6256C38.0933 26.7755 37.7508 27.7633 37.6018 28.5742C37.572 28.6774 37.5572 28.8101 37.5572 29.0018C37.5572 29.562 37.7061 29.8274 38.0188 29.8274C38.3315 29.8274 38.689 29.68 39.1059 29.3998C39.5229 29.105 39.8952 28.8101 40.2229 28.471C40.5505 28.1467 40.8632 27.8076 41.176 27.4685C41.4887 27.1294 41.6674 26.923 41.727 26.8787C41.7866 26.8345 41.8759 26.805 41.995 26.805C42.1886 26.805 42.3078 26.9525 42.3525 27.2473C42.3971 27.5422 42.412 27.8371 42.412 28.1614C42.412 28.4858 42.3822 28.6922 42.3227 28.8101C42.0248 29.3851 41.3845 30.078 40.3718 30.8889C39.374 31.6998 38.4507 32.0979 37.6316 32.0979C36.8125 32.0979 36.202 31.8472 35.8296 31.3607C35.4573 30.8742 35.2489 30.3139 35.2489 29.7242C35.2489 29.1197 35.3531 28.6037 35.5616 28.1467C34.7127 29.2377 33.7447 30.1518 32.6576 30.9184C31.5556 31.6703 30.6769 32.0536 29.977 32.0536C29.2771 32.0536 28.7261 31.8472 28.2793 31.4344C27.7134 30.9184 27.4453 30.2107 27.4453 29.2966C27.4453 28.3826 27.6538 27.4685 28.0708 26.5396C28.4878 25.6256 29.0239 24.7704 29.6941 24.0185C30.3642 23.2519 31.1088 22.5589 31.913 21.9397C33.5958 20.6276 35.1595 19.9789 36.5891 19.9789C37.1402 19.9789 37.5869 20.0673 37.9295 20.2442C38.272 20.4212 38.4954 20.6571 38.5847 20.9224C38.823 20.5539 39.0315 20.3327 39.2102 20.2295C39.3442 20.1116 39.5974 20.0673 39.925 20.0673ZM37.8997 21.7481C36.1573 21.7481 34.3553 22.7064 32.4938 24.623C31.8385 25.3159 31.2279 26.1268 30.662 27.0851C30.0961 28.0435 29.8281 28.6922 29.8281 29.046C29.8281 29.3998 29.9323 29.5768 30.1408 29.5768C30.4238 29.5768 31.2131 29.0165 32.5236 27.9108C33.8341 26.805 34.6978 25.9794 35.1148 25.4486C35.5914 24.8589 36.5147 23.6205 37.8997 21.7481Z" fill="#B1B1B1"/>
<path d="M51.5113 12.0762L52.1368 12.2237C52.2262 12.2237 52.3155 12.2679 52.3751 12.3564C52.4496 12.4448 52.4794 12.5333 52.4794 12.607C52.4794 12.6807 52.3751 12.9019 52.1517 13.2557C51.9283 13.6095 51.69 14.0076 51.3922 14.4499C51.0944 14.8922 50.9454 15.1428 50.9305 15.1871C51.7198 15.1281 52.2857 15.0986 52.6134 15.0986C52.941 15.0986 53.1644 15.1281 53.2984 15.1723C53.4175 15.2166 53.5665 15.3493 53.7154 15.5557C53.8792 15.7621 54.0132 15.9242 54.1473 16.0274C54.2813 16.1306 54.3409 16.2928 54.3409 16.4992C54.3409 16.7056 54.2068 16.8973 53.9537 17.03C53.7005 17.1774 53.4176 17.2659 53.1197 17.2954C50.7518 17.5313 49.4562 17.6492 49.2179 17.664C48.3989 18.9171 47.2373 20.8633 45.7629 23.5023C44.2886 26.1414 43.4993 27.8074 43.41 28.4708C43.3653 28.7804 43.3504 29.0163 43.3504 29.208C43.3504 29.606 43.5589 29.7977 43.9759 29.7977C44.3929 29.7977 44.8545 29.6355 45.3608 29.3259C45.8672 29.0016 46.3437 28.6625 46.7607 28.2939C47.9074 27.2913 48.518 26.7753 48.5925 26.7753C48.8605 26.7753 48.9946 27.2324 48.9946 28.1317C48.9946 28.6182 48.7712 29.0605 48.3095 29.4586C47.282 30.3285 46.4182 30.9919 45.7183 31.4342C45.0183 31.8765 44.3184 32.0977 43.6036 32.0977C43.4546 32.0977 43.3057 32.0829 43.1717 32.0534C42.3526 31.906 41.7569 31.6111 41.3846 31.1688C40.9974 30.7265 40.8187 30.1368 40.8187 29.3996C40.8187 28.6625 41.0421 27.7484 41.4889 26.6869C41.9356 25.6253 42.4866 24.4901 43.1568 23.2959C44.2588 21.335 45.3609 19.5069 46.448 17.7966L45.8672 17.8704C44.6907 18.003 44.0057 18.062 43.8121 18.062H43.678C43.3802 18.062 43.0972 18.003 42.8292 17.8851C42.5611 17.7672 42.4122 17.6197 42.4122 17.4575C42.4122 17.2806 42.4867 17.1184 42.6356 16.9563C42.7845 16.7941 42.8738 16.6614 42.9036 16.5729C42.9781 16.3518 43.2461 16.1012 43.7078 15.8358C44.1695 15.5704 44.512 15.423 44.7503 15.4082C44.9886 15.3935 45.2119 15.3787 45.4353 15.364C45.6587 15.3492 45.897 15.3492 46.165 15.3345C46.4331 15.3198 46.6416 15.3198 46.7905 15.305L48.1606 15.246C49.0094 13.9781 49.6051 13.1525 49.9179 12.7987C50.2455 12.4301 50.4242 12.2384 50.4689 12.2089C50.5136 12.1794 50.6178 12.1499 50.7816 12.1499L51.5113 12.0762Z" fill="#B1B1B1"/>
<path d="M60.67 26.805C60.8636 26.805 60.9827 26.9524 61.0274 27.2473C61.0721 27.5421 61.087 27.837 61.087 28.1614C61.087 28.4857 61.0572 28.6921 60.9976 28.8101C60.6997 29.3703 60.0594 30.0633 59.0616 30.8741C58.0638 31.685 57.1107 32.0978 56.2172 32.0978C55.6662 32.0978 55.1598 31.9357 54.6833 31.6113C54.2216 31.287 53.9834 30.712 53.9834 29.9011C53.9834 29.0902 54.2067 28.2793 54.6386 27.4979C52.1069 30.6382 50.1412 32.201 48.6966 32.201C48.1307 32.201 47.6691 31.9946 47.3116 31.5966C46.9542 31.1985 46.7904 30.7857 46.7904 30.3434C46.7904 29.9158 46.85 29.4735 46.9691 29.0165C47.0882 28.5594 47.2223 28.1466 47.3563 27.778C47.4903 27.4095 47.6988 26.9672 47.9669 26.4364C48.2349 25.9056 48.4434 25.5223 48.5626 25.2717C48.6817 25.021 48.9051 24.6672 49.2029 24.1807C49.5008 23.6941 49.8731 23.0307 50.3496 22.2051C50.8262 21.3794 51.2134 20.7602 51.5261 20.3622C51.8389 19.9641 52.1367 19.7577 52.4346 19.7577C52.7324 19.7577 52.9856 19.8756 53.209 20.1115C53.4323 20.3474 53.5515 20.5538 53.5515 20.7012C53.5515 20.8487 53.209 21.5269 52.5239 22.7358C50.5135 26.3479 49.5008 28.4415 49.5008 29.046C49.5008 29.1934 49.5604 29.2671 49.6646 29.2671C50.156 29.2671 51.3772 28.2203 53.3132 26.1268C55.2492 24.0332 56.381 22.6916 56.6937 22.1019C57.0065 21.5121 57.2894 21.0109 57.5873 20.6128C57.8702 20.2147 58.0936 19.9641 58.2425 19.8756C58.6744 19.5955 59.2403 19.4481 59.9403 19.4186C60.0594 19.4186 60.1339 19.4186 60.1934 19.4333C60.253 19.4481 60.3274 19.5365 60.4019 19.684C60.4764 19.8314 60.5211 19.9641 60.5211 20.0673C60.4317 20.3474 60.0296 21.0993 59.2999 22.323C58.585 23.5467 58.183 24.2396 58.1085 24.3871C56.9022 26.8492 56.3065 28.4562 56.3065 29.1934C56.3065 29.621 56.4704 29.8274 56.798 29.8274C57.3937 29.7536 58.1085 29.2819 58.9425 28.4267C59.2552 28.1171 59.5531 27.7928 59.8509 27.4684C60.1488 27.1441 60.3423 26.9524 60.4019 26.9082C60.4764 26.8345 60.5657 26.805 60.67 26.805Z" fill="#B1B1B1"/>
<path d="M65.093 23.3108C67.4906 20.6128 69.5458 19.2564 71.2286 19.2564C71.6456 19.2564 71.9881 19.3743 72.2562 19.625C72.5242 19.8756 72.6582 20.1852 72.6582 20.5833C72.6582 20.9814 72.3753 21.6301 71.8094 22.5589C71.2435 23.473 70.7223 24.2544 70.2457 24.8883C69.9925 25.2127 69.7096 25.3749 69.3819 25.3749C69.0692 25.3749 68.816 25.2569 68.6373 25.021C68.4586 24.7851 68.3693 24.5198 68.3693 24.2102C68.3693 23.5172 68.7416 22.7211 69.5011 21.8512L69.4713 21.8217C69.1288 21.8512 68.3097 22.5147 66.9694 23.7826C65.644 25.0653 64.5122 26.2152 63.574 27.2178C62.6507 28.2351 61.638 29.4588 60.536 30.9184C60.2232 31.3459 59.9552 31.5671 59.7318 31.5671C59.5084 31.5671 59.2254 31.4934 58.868 31.3607C58.5106 31.228 58.2872 31.1248 58.2128 31.0658C58.1383 31.0068 58.0936 30.9036 58.0936 30.7562C58.0936 30.6235 58.1383 30.4466 58.2128 30.2697C58.2872 30.078 58.451 29.8126 58.6595 29.4735C58.868 29.1344 59.2106 28.5742 59.6573 27.8075C60.1041 27.0409 60.7891 25.8762 61.7273 24.3281C62.6655 22.7801 63.2166 21.8365 63.4102 21.5121C63.7974 20.8487 64.1101 20.3621 64.3633 20.0673C64.8249 19.4923 65.5993 19.2122 66.6865 19.2122C66.9247 19.2122 67.0588 19.3596 67.0588 19.6692C67.0588 20.141 66.612 21.0403 65.7334 22.3378L65.093 23.3108Z" fill="#B1B1B1"/>
<path d="M81.5193 20.2442C81.5193 20.9076 81.2512 21.4973 80.7002 21.9986C80.1492 22.4999 79.5386 22.7505 78.8387 22.7505C78.6153 22.7505 78.4664 22.6915 78.3919 22.5883C78.3174 22.4851 78.2877 22.3377 78.2877 22.1755C78.2877 22.0133 78.3026 21.8364 78.3472 21.6743C77.9749 21.7922 77.5728 21.9839 77.1261 22.2345C76.6793 22.4851 76.1283 22.8537 75.473 23.355C74.8178 23.8563 74.4901 24.2101 74.4901 24.4607C74.4901 24.5345 74.6093 24.5787 74.8475 24.5787C75.0858 24.5787 75.4581 24.4902 75.9496 24.3281C76.441 24.1659 76.7984 24.0774 76.992 24.0774C77.1856 24.0774 77.3197 24.0922 77.3792 24.1069C77.5133 24.1806 77.6473 24.3281 77.8111 24.5639C77.96 24.7998 78.0345 24.9915 78.0345 25.1242C78.0345 25.2569 77.9005 25.4338 77.6324 25.6549C77.3644 25.8761 77.0665 26.0383 76.7389 26.1562C76.3963 26.2742 76.173 26.3626 76.0687 26.4216C73.9242 27.6158 72.852 28.4267 72.852 28.869C72.852 29.6504 73.5221 30.0485 74.8773 30.0485C75.7411 30.0485 76.6197 29.7831 77.4835 29.2376C78.2281 28.7805 78.8983 28.3087 79.4939 27.8222C80.0896 27.3504 80.4619 27.0556 80.6257 26.9376C80.7896 26.8197 80.9087 26.7754 80.9832 26.7754C81.2512 26.7754 81.3852 27.0703 81.3852 27.66C81.3852 28.2498 81.3555 28.6331 81.281 28.81C81.2065 29.0017 81.0129 29.2228 80.6704 29.503C78.4962 31.2574 76.4261 32.142 74.4901 32.142C73.4477 32.142 72.6286 31.9946 72.0031 31.7145C70.8564 31.1984 70.2905 30.417 70.2905 29.3555C70.2905 27.9697 71.2585 26.9081 73.2094 26.2004C72.8222 26.0235 72.5691 25.8171 72.4648 25.537C72.3457 25.2716 72.301 24.8441 72.301 24.2543C72.301 23.6646 72.5839 23.0454 73.135 22.3819C73.686 21.7185 74.371 21.173 75.1752 20.7602C76.9622 19.8019 78.5706 19.3301 79.9705 19.3301C80.313 19.3301 80.6406 19.4038 80.9981 19.566C81.3555 19.7281 81.5193 19.9493 81.5193 20.2442Z" fill="#B1B1B1"/>
<path d="M116.278 9.98278H116.471C116.531 9.98278 116.575 9.98278 116.59 9.99752C116.605 10.0123 116.62 10.0123 116.65 10.027C116.68 10.027 116.695 10.0418 116.724 10.0712C116.769 10.1155 116.843 10.1597 116.933 10.2039C117.052 10.2924 117.112 10.3956 117.112 10.5135C117.112 10.6315 116.992 10.8821 116.754 11.2654C116.516 11.6488 115.905 12.5776 114.907 14.0814C112.629 17.5314 110.589 20.7454 108.787 23.6941C105.674 28.8247 104.096 31.4048 104.066 31.4343C104.036 31.4638 104.021 31.4933 104.006 31.5228C103.991 31.5817 103.962 31.6112 103.887 31.6112L103.679 31.567L103.262 31.6702L103.023 31.626L102.77 31.6702H102.681L101.832 31.7881C101.326 31.7881 101.073 31.6112 101.073 31.2721C101.073 31.1247 101.117 30.9478 101.207 30.7414C101.519 30.0042 103.113 27.3357 105.972 22.7063C104.096 22.7505 102.234 22.78 100.402 22.78L97.1262 22.7652C96.59 23.6203 95.8454 24.8293 94.9072 26.4068C92.8819 29.842 91.8096 31.567 91.6756 31.5965C91.5416 31.626 91.4373 31.6555 91.348 31.6555C91.2586 31.6555 91.1842 31.6112 91.1246 31.508C91.0501 31.4196 91.0054 31.3606 90.9757 31.3606C90.9459 31.3606 90.9012 31.3753 90.8118 31.4196C90.7374 31.4638 90.6183 31.4785 90.4544 31.4785L90.097 31.4638L89.963 31.3753C89.9481 31.3753 89.9332 31.3901 89.9183 31.4196C89.9034 31.449 89.8588 31.4638 89.7992 31.4638C89.3673 31.4638 89.1439 31.2869 89.1439 30.9183C89.1439 30.6824 89.2333 30.358 89.3971 29.96C89.5758 29.5619 89.7992 29.1343 90.0821 28.6773C90.3651 28.2203 91.0799 27.1145 92.2564 25.3895C93.418 23.6646 93.9988 22.7947 93.9988 22.78C93.8052 22.7652 93.5818 22.7652 93.3286 22.7505C92.8074 22.7505 92.45 22.7357 92.2266 22.6915C91.6458 22.5883 91.2437 22.1165 91.0352 21.2762C90.9161 20.8633 90.8714 20.598 90.8863 20.4653C90.8863 20.1999 91.0055 20.0525 91.2437 20.0525L91.6458 20.1557C91.8543 20.1704 92.3309 20.1852 93.1053 20.2294C93.8797 20.2736 94.4307 20.2884 94.7732 20.2884L95.6369 20.2589C96.9623 18.2095 98.5409 15.8801 100.388 13.2853C99.0473 14.3763 97.558 14.9218 95.9199 14.9218C95.1455 14.9218 94.4753 14.7449 93.9243 14.3763C93.3584 14.0077 93.0904 13.5359 93.0904 12.9757C93.0904 12.4154 93.2989 11.9731 93.7307 11.634C94.1626 11.3097 94.5647 11.1475 94.9519 11.1475C95.3391 11.1475 95.5327 11.2065 95.5327 11.3244C95.5327 11.3687 95.4731 11.4129 95.3689 11.4571C95.2646 11.5161 95.2051 11.5603 95.2051 11.6045C95.2051 11.7667 95.3838 11.9142 95.7412 12.0321C96.0986 12.15 96.5007 12.2238 96.9474 12.2238C97.3942 12.2238 97.9303 12.0911 98.5856 11.8404C99.2409 11.5898 99.911 11.2507 100.611 10.8526C101.594 10.2924 102.368 9.8206 102.934 9.45202C103.262 9.28984 103.56 9.21613 103.857 9.21613C104.155 9.21613 104.349 9.24561 104.483 9.31933C104.617 9.3783 104.706 9.45202 104.766 9.51099C104.825 9.56997 104.9 9.65843 104.959 9.76163C105.034 9.86483 105.094 9.95329 105.168 9.99752C105.228 10.0565 105.272 10.1155 105.272 10.1892C105.272 10.2629 105.228 10.3661 105.153 10.5283C105.079 10.6757 104.691 11.2949 103.991 12.3712C103.292 13.4475 102.383 14.8186 101.281 16.4846C100.179 18.1506 99.3749 19.3743 98.8686 20.1704C101.594 20.1704 104.528 20.1262 107.685 20.023C111.527 14.0224 113.552 10.8821 113.761 10.5873C113.969 10.2924 114.163 10.1007 114.342 10.0123C114.52 9.92381 114.729 9.87958 114.982 9.87958L116.278 9.98278Z" fill="#B1B1B1"/>
<path d="M121.252 20.0376C121.565 20.0376 121.877 20.1703 122.19 20.4505C122.518 20.7306 122.667 21.1434 122.667 21.7036C122.667 22.2639 122.473 22.9863 122.071 23.8856C121.669 24.7702 121.133 25.6843 120.433 26.6132C119.748 27.5273 118.973 28.3971 118.154 29.208C117.32 30.0189 116.427 30.6823 115.474 31.1983C114.506 31.7144 113.642 31.9797 112.853 31.9797C112.063 31.9797 111.438 31.7291 110.961 31.2426C110.485 30.756 110.246 30.0778 110.246 29.208C110.246 28.3381 110.47 27.3651 110.902 26.3183C111.334 25.2568 111.885 24.3279 112.57 23.5171C113.255 22.7062 113.984 21.9838 114.789 21.3351C116.442 20.0082 117.901 19.3595 119.152 19.3595C119.718 19.3595 120.135 19.4921 120.418 19.7723C120.522 19.8607 120.567 19.9492 120.567 20.0082V20.0966C120.731 20.0376 120.954 20.0376 121.252 20.0376ZM119.718 22.0427H119.614C119.256 22.0427 119.078 21.7921 119.078 21.2761C118.333 21.512 117.559 21.9395 116.739 22.544C115.92 23.1485 115.191 23.8709 114.55 24.6965C113.24 26.3478 112.585 27.7484 112.57 28.8836C112.57 29.4439 112.778 29.724 113.195 29.724C113.612 29.724 114.238 29.4439 115.057 28.9131C115.876 28.3824 116.695 27.601 117.514 26.5837C118.318 25.5811 118.929 24.6965 119.331 23.9594C119.733 23.2222 119.941 22.7209 119.941 22.4408C119.926 22.1754 119.852 22.0427 119.718 22.0427Z" fill="#B1B1B1"/>
<path d="M122.339 31.6407L121.594 31.6112H121.326C121.222 31.5817 121.118 31.5227 120.998 31.4342C120.879 31.3458 120.79 31.2721 120.73 31.2426C120.671 31.2131 120.641 31.1246 120.641 31.0214C120.641 30.9182 120.686 30.7266 120.76 30.4759C122.741 26.1561 124.662 22.6915 126.523 20.1114C126.732 19.8313 127.06 19.6101 127.506 19.4627C127.953 19.3152 128.4 19.2415 128.832 19.2415C129.085 19.2415 129.219 19.4332 129.219 19.8313C129.219 19.9492 129.174 20.0966 129.1 20.2736C129.025 20.4652 128.817 20.7601 128.489 21.1876C128.162 21.6152 127.774 22.1017 127.328 22.6325C126.881 23.1632 126.628 23.4876 126.568 23.5761C127.968 22.146 129.219 21.0844 130.351 20.3768C131.483 19.6838 132.287 19.33 132.793 19.33C133.299 19.33 133.687 19.4774 133.955 19.7575C134.223 20.0377 134.357 20.3473 134.357 20.6716C134.357 20.996 134.327 21.2761 134.282 21.4825C134.238 21.7037 134.148 21.9248 134.029 22.1607C133.91 22.3966 133.806 22.603 133.716 22.7652C133.627 22.9274 133.478 23.1485 133.285 23.4139C133.076 23.6793 132.942 23.8709 132.868 23.9741C132.793 24.0773 132.629 24.269 132.391 24.5491C132.153 24.8292 132.019 24.9914 132.004 25.0209C132.287 24.7408 132.689 24.328 133.195 23.7677C133.701 23.2075 134.133 22.7504 134.491 22.3819C134.848 22.0133 135.28 21.5857 135.816 21.1139C136.352 20.6421 136.844 20.2588 137.291 19.9787C138.393 19.3005 139.509 18.9467 140.641 18.9467C141.028 18.9467 141.356 19.0646 141.624 19.3152C141.892 19.5659 142.026 19.846 142.026 20.1851C142.026 20.5242 141.609 21.3351 140.79 22.603C139.971 23.8709 139.137 25.1536 138.318 26.4363C137.499 27.7189 137.082 28.5298 137.082 28.8689C137.082 29.3259 137.171 29.6061 137.335 29.6945C137.514 29.783 137.722 29.8125 137.961 29.7977C138.199 29.783 138.556 29.6208 138.988 29.326C139.435 29.0311 139.822 28.7362 140.165 28.4119C140.731 27.9106 141.237 27.4241 141.728 26.9523C141.833 26.8638 141.937 26.8196 142.071 26.8196C142.265 26.8196 142.384 26.967 142.428 27.2619C142.473 27.5568 142.488 27.8516 142.488 28.176C142.488 28.5003 142.458 28.7067 142.399 28.8247C142.101 29.3849 141.445 30.0779 140.448 30.9035C139.435 31.7144 138.467 32.1272 137.544 32.1272C137.425 32.1272 137.35 32.1272 137.305 32.1124C136.263 32.0092 135.533 31.7291 135.131 31.2573C134.729 30.7855 134.535 30.2253 134.535 29.5913C134.535 28.9574 134.759 28.1612 135.206 27.2471C135.652 26.3331 136.129 25.4927 136.665 24.7555C137.201 24.0184 137.678 23.3402 138.124 22.7357C138.571 22.1312 138.795 21.8069 138.795 21.7626C138.795 21.7184 138.75 21.6889 138.675 21.6889C138.363 21.6889 137.663 22.1902 136.561 23.2075C134.699 24.9324 133.091 26.5984 131.736 28.1907C131.378 28.6183 130.529 29.6798 129.204 31.4048C129.055 31.6112 128.802 31.7144 128.474 31.7144C128.147 31.7144 127.804 31.6554 127.447 31.5227C127.089 31.39 126.911 31.2278 126.911 31.0362C126.911 30.933 127.715 29.5176 129.338 26.7901C130.961 24.0626 131.765 22.5735 131.765 22.3376C131.765 22.087 131.617 21.969 131.319 21.969C131.021 21.969 130.395 22.4113 129.457 23.2959C126.881 25.7286 124.885 28.1612 123.471 30.5644C123.381 30.7118 123.202 30.933 122.934 31.2278C122.666 31.5227 122.428 31.6407 122.339 31.6407Z" fill="#B1B1B1"/>
<path d="M151.87 20.2442C151.87 20.9076 151.602 21.4973 151.051 21.9986C150.5 22.4999 149.89 22.7505 149.19 22.7505C148.966 22.7505 148.817 22.6915 148.743 22.5883C148.669 22.4851 148.639 22.3377 148.639 22.1755C148.639 22.0133 148.654 21.8364 148.698 21.6743C148.326 21.7922 147.924 21.9839 147.477 22.2345C147.03 22.4851 146.479 22.8537 145.824 23.355C145.169 23.8563 144.841 24.2101 144.841 24.4607C144.841 24.5345 144.96 24.5787 145.199 24.5787C145.437 24.5787 145.809 24.4902 146.301 24.3281C146.792 24.1659 147.15 24.0774 147.343 24.0774C147.537 24.0774 147.671 24.0922 147.73 24.1069C147.864 24.1806 147.998 24.3281 148.162 24.5639C148.311 24.7998 148.386 24.9915 148.386 25.1242C148.386 25.2569 148.252 25.4338 147.983 25.6549C147.715 25.8761 147.418 26.0383 147.09 26.1562C146.747 26.2742 146.524 26.3626 146.42 26.4216C144.275 27.6158 143.203 28.4267 143.203 28.869C143.203 29.6504 143.873 30.0485 145.228 30.0485C146.092 30.0485 146.971 29.7831 147.835 29.2376C148.579 28.7805 149.249 28.3087 149.845 27.8222C150.441 27.3504 150.813 27.0556 150.977 26.9376C151.141 26.8197 151.26 26.7754 151.334 26.7754C151.602 26.7754 151.736 27.0703 151.736 27.66C151.736 28.2498 151.707 28.6331 151.632 28.81C151.558 29.0017 151.364 29.2228 151.021 29.503C148.847 31.2574 146.777 32.142 144.841 32.142C143.799 32.142 142.98 31.9946 142.354 31.7145C141.207 31.1984 140.642 30.417 140.642 29.3555C140.642 27.9697 141.61 26.9081 143.56 26.2004C143.173 26.0235 142.92 25.8171 142.816 25.537C142.697 25.2716 142.652 24.8441 142.652 24.2543C142.652 23.6646 142.935 23.0454 143.486 22.3819C144.037 21.7185 144.722 21.173 145.526 20.7602C147.313 19.8019 148.922 19.3301 150.322 19.3301C150.664 19.3301 150.992 19.4038 151.349 19.566C151.707 19.7281 151.87 19.9493 151.87 20.2442Z" fill="#B1B1B1"/>
<path d="M0.907715 35.7246C4.82437 37.3464 8.81548 38.5996 12.8811 39.5579C16.9169 40.5605 21.0271 41.2681 25.1374 41.7104C27.1925 41.9906 29.2625 42.02 31.3028 42.2117C33.3728 42.2264 35.4279 42.3886 37.4831 42.2707L40.5658 42.197C41.5933 42.1822 42.6209 42.0495 43.6484 41.9906C44.676 41.9021 45.7036 41.8579 46.7162 41.7252L49.7691 41.2976C53.8645 40.8553 57.8407 39.9117 61.8021 38.7765C65.8081 37.6855 69.5907 36.2407 73.5967 34.7368C77.6921 33.2478 82.13 32.2747 86.6274 32.7465C88.8464 33.0266 91.0802 33.7343 92.8971 35.0317C94.7288 36.3144 96.0393 38.1425 96.8733 40.0592C95.6224 38.349 94.0587 36.9483 92.2567 36.0785C90.4547 35.2086 88.4741 34.8548 86.5083 34.9138C82.5321 34.9727 78.6154 36.2849 74.937 37.9361C71.1991 39.7643 67.1484 41.4156 63.0679 42.7867C58.9576 44.0988 54.7134 45.1456 50.4095 45.6764C41.8465 46.7969 33.075 46.8116 24.6162 45.1161C20.3719 44.3495 16.2318 43.1553 12.2258 41.6367C8.24958 40.0592 4.36271 38.2163 0.907715 35.7246Z" fill="#B1B1B1"/>
<path d="M143.322 11.1771C140.001 9.77646 136.621 8.68546 133.195 7.83035C129.785 6.931 126.33 6.29704 122.86 5.85474C121.133 5.58937 119.375 5.53039 117.648 5.32398C115.906 5.27975 114.178 5.10283 112.436 5.17655C111.572 5.19129 110.693 5.19129 109.829 5.17655C108.966 5.17655 108.087 5.26501 107.223 5.2945C106.36 5.35347 105.481 5.36821 104.617 5.45667L102.026 5.76628C98.5561 6.04641 95.1904 6.75409 91.8248 7.62394C88.4145 8.43482 85.1828 9.5848 81.7427 10.7348C78.2133 11.8995 74.386 12.6072 70.5438 12.0764C68.6524 11.7668 66.7462 11.1034 65.2421 9.9239C63.7082 8.75918 62.6658 7.1669 62.0254 5.5009C63.0827 6.96049 64.3933 8.1547 65.8974 8.89187C67.4015 9.62903 69.0545 9.93864 70.7076 9.9239C74.0434 9.9239 77.3495 8.86238 80.4769 7.53548C83.6638 6.03166 87.1635 4.70477 90.6483 3.61376C94.1628 2.56698 97.8263 1.77084 101.49 1.38752C108.802 0.620866 116.278 0.797785 123.441 2.47852C127.03 3.23043 130.53 4.38041 133.88 5.79577C137.246 7.24062 140.493 8.92135 143.322 11.1771Z" fill="#B1B1B1"/>
</svg>
