<svg width="172" height="46" viewBox="0 0 172 46" fill="none" xmlns="http://www.w3.org/2000/svg">
<path d="M37.2126 45.1662H9.23382C4.63595 45.1662 0.909668 41.4771 0.909668 36.9252V9.22627C0.909668 4.67438 4.63595 0.985352 9.23382 0.985352H37.2126C41.8105 0.985352 45.5367 4.67438 45.5367 9.22627V36.9252C45.5367 41.4771 41.8105 45.1662 37.2126 45.1662Z" fill="#B1B1B1"/>
<path d="M31.2629 23.4822C32.0587 24.4701 32.4629 25.6206 32.4629 26.9211C32.4629 28.8344 31.8187 30.335 30.5303 31.398C29.2419 32.4609 27.3977 33.0112 24.9977 33.0112H14.5135V10.6894H24.7451C27.044 10.6894 28.8124 11.1896 30.0629 12.1775C31.3134 13.1654 31.945 14.5785 31.945 16.4043C31.945 17.7548 31.5787 18.8678 30.8587 19.7682C30.1387 20.6685 29.1914 21.2438 28.0166 21.5189C29.3935 21.844 30.4671 22.4943 31.2629 23.4822ZM19.9577 19.8182H23.5324C25.4272 19.8182 26.3745 19.0179 26.3745 17.4172C26.3745 15.8165 25.4019 15.0162 23.4693 15.0162H19.9577V19.8182ZM26.8798 26.1708C26.8798 25.3705 26.6145 24.7452 26.084 24.2951C25.5535 23.8449 24.7956 23.6198 23.823 23.6198H19.9703V28.6343H23.8608C25.8693 28.6218 26.8798 27.809 26.8798 26.1708Z" fill="white"/>
<path d="M71.3933 33.0112L66.5176 24.5827H65.2797V33.0112H59.8229V10.6894H69.1323C70.9133 10.6894 72.4291 10.9895 73.6544 11.6023C74.8923 12.215 75.8143 13.0529 76.4333 14.1158C77.0522 15.1788 77.3554 16.3918 77.3554 17.7673C77.3554 19.393 76.9007 20.7686 76.0038 21.9066C75.0943 23.0445 73.7933 23.8199 72.0628 24.245L77.4185 33.0237H71.3933V33.0112ZM65.2797 20.8936H68.6523C69.7386 20.8936 70.5344 20.656 71.0396 20.1808C71.5449 19.7056 71.8102 19.0054 71.8102 18.08C71.8102 17.1921 71.5449 16.5043 71.027 15.9916C70.5091 15.4914 69.7133 15.2288 68.6523 15.2288H65.2797V20.8936Z" fill="#B1B1B1"/>
<path d="M102.038 28.947H93.5873L92.1851 33.0237H86.4504L94.7114 10.8645H100.989L109.25 33.0237H103.452L102.038 28.947ZM100.636 24.8328L97.8314 16.6294L94.9893 24.8328H100.636Z" fill="#B1B1B1"/>
<path d="M139.351 33.0112H133.894L124.774 19.3055V33.0112H119.317V10.6894H124.774L133.894 24.5201V10.6894H139.351V33.0112Z" fill="#B1B1B1"/>
<path d="M169.944 27.6339C168.997 29.3221 167.633 30.6477 165.864 31.598C164.083 32.5484 161.999 33.0236 159.599 33.0236H151.086V10.7019H159.599C162.024 10.7019 164.121 11.1646 165.877 12.09C167.645 13.0153 168.997 14.3159 169.944 16.0041C170.892 17.6923 171.359 19.6181 171.359 21.819C171.359 23.9949 170.879 25.9332 169.944 27.6339ZM164.071 26.5084C165.245 25.3955 165.839 23.8198 165.839 21.8065C165.839 19.7806 165.245 18.2175 164.071 17.1045C162.896 15.9916 161.241 15.4288 159.107 15.4288H156.53V28.1841H159.107C161.241 28.1841 162.896 27.6339 164.071 26.5084Z" fill="#B1B1B1"/>
</svg>
